<svg width="23" height="27" viewBox="0 0 23 27" fill="none" xmlns="http://www.w3.org/2000/svg">
<path d="M21.9867 3.20716C21.9146 3.32747 21.8404 3.44979 21.7682 3.57211C21.7882 3.57813 21.8143 3.59016 21.8344 3.61622C21.8845 3.68641 21.8424 3.79469 21.8023 3.88693C21.69 4.15964 21.6358 4.296 21.6218 4.32006C21.5215 4.4905 21.3792 4.72511 21.1827 5.00183C21.1947 5.01587 21.2107 5.03793 21.2228 5.06801C21.2689 5.18431 21.2147 5.30663 21.1726 5.38684C21.0864 5.56129 21.0062 5.65153 20.8498 5.8701C20.7776 5.97236 20.5891 6.23705 20.543 6.4456C20.539 6.45562 20.537 6.47166 20.531 6.49573C20.4848 6.65815 20.3786 6.78047 20.3786 6.78047C20.2402 6.96896 20.1018 7.15745 19.9615 7.34594C19.6527 7.76303 19.3439 8.1721 19.0351 8.57715C19.0511 8.60723 19.0772 8.66538 19.0872 8.74358C19.1193 8.96616 19.011 9.22283 18.241 10.0089C18.1367 10.1152 17.9963 10.2555 17.8239 10.42C17.7617 10.7729 17.6314 10.9995 17.5191 11.1438C17.3888 11.3123 16.7411 12.0723 16.719 12.1324C16.713 12.1465 16.703 12.1725 16.6869 12.2226C16.6228 12.4232 16.5526 12.5876 16.4804 12.7199C16.713 12.9866 16.8233 13.119 16.8313 13.129C16.8313 13.129 16.8333 13.131 16.8353 13.135C16.8413 13.143 16.8534 13.1611 16.8694 13.1832C16.9135 13.2413 16.9877 13.3335 17.098 13.4218C17.1782 13.49 17.2183 13.524 17.2825 13.5481C17.3747 13.5842 17.467 13.5842 17.6535 13.5862C17.6715 13.5862 17.7276 13.5882 17.8058 13.5902C17.846 13.5922 17.874 13.5942 17.882 13.5962C18.0204 13.6063 18.2089 13.6885 18.257 13.7105C18.4034 13.7767 18.4776 13.8108 18.5538 13.881C18.642 13.9612 18.7002 14.0514 18.7042 14.0574C18.7283 14.0975 18.7684 14.1697 18.7964 14.2219C18.8185 14.264 18.8245 14.276 18.8406 14.3041C18.8566 14.3301 18.8706 14.3522 18.8907 14.3883C18.9087 14.4244 18.9167 14.4404 18.9107 14.4525C18.8947 14.4765 18.8185 14.4525 18.8065 14.4485C18.7724 14.4324 18.7383 14.4164 18.7022 14.4003C18.7343 14.4444 18.7583 14.4805 18.7784 14.5106C18.8566 14.6229 18.8827 14.663 18.8686 14.6831C18.8606 14.6951 18.8385 14.6951 18.8165 14.6971C18.7844 14.6971 18.7623 14.6871 18.7383 14.675C18.7182 14.665 18.6881 14.649 18.6581 14.6209C18.6661 14.671 18.6701 14.7111 18.6701 14.7412C18.6741 14.8254 18.6641 14.8435 18.6521 14.8515C18.636 14.8635 18.612 14.8595 18.6039 14.8575C18.5939 14.8555 18.5779 14.8495 18.5358 14.8014C18.5237 14.7873 18.5097 14.7693 18.4916 14.7472C18.4916 14.7552 18.4896 14.7753 18.4756 14.7933C18.4636 14.8094 18.4355 14.8294 18.4154 14.8174C18.4014 14.8094 18.3954 14.7933 18.3954 14.7873C18.3834 14.7552 18.3573 14.7071 18.3112 14.661C18.235 14.5888 18.1447 14.5728 18.1127 14.5668C18.0445 14.5547 18.0324 14.5728 17.9382 14.5648C17.874 14.5587 17.8299 14.5487 17.7677 14.5327C17.7317 14.5246 17.6254 14.4986 17.4449 14.4264C17.2965 14.3682 17.2223 14.3402 17.1622 14.29C17.1281 14.264 17.096 14.2299 17.0318 14.1637C16.9576 14.0855 16.9095 14.0294 16.8915 14.0093C16.8173 13.9271 16.7531 13.885 16.4844 13.7085C16.2819 13.5762 16.1816 13.508 16.1596 13.494C16.0513 13.4178 15.9771 13.3616 15.8808 13.2854C15.8187 13.3115 15.7405 13.3416 15.4537 13.4338C15.0366 13.5682 14.7038 13.6865 14.4812 13.7667C14.5654 13.905 14.7198 14.1316 14.9745 14.3342C15.6663 14.8916 16.2458 14.6049 17.0338 15.1743C17.2183 15.3087 17.6775 15.6516 17.6755 16.1188C17.6755 16.179 17.6735 16.3474 17.5732 16.5018C17.5251 16.574 17.4389 16.6682 16.6849 17.0452C16.5446 17.1054 16.3801 17.1996 16.1957 17.35C16.0132 17.5004 15.8107 17.7089 15.6001 17.9977C15.4056 18.3005 15.2933 18.5592 15.2211 18.7517C15.163 18.9061 15.0487 19.249 14.8582 19.2891C14.8401 19.2931 14.808 19.2951 14.7639 19.3111C14.6115 19.3733 14.5313 19.4916 14.5313 19.4916C14.4892 19.5558 14.4551 19.6239 14.4331 19.6801C14.411 19.7362 14.395 19.7844 14.3889 19.8044C14.3869 19.8084 14.3849 19.8104 14.3849 19.8124C14.1423 20.6406 13.2961 21.3183 13.2961 21.3183C13.252 21.3524 13.1778 21.4106 13.0795 21.4788C13.0454 21.7374 13.1056 21.8918 13.1658 21.9821C13.2901 22.1746 13.4665 22.1746 13.5628 22.3932C13.631 22.5496 13.6049 22.6979 13.5969 22.7441C13.5508 22.9606 13.4024 23.0228 13.2279 23.2213C12.889 23.6163 13.0595 23.863 12.7667 24.0755C12.6384 24.1678 12.6604 24.0815 12.1411 24.266C12.1411 24.266 11.7701 24.3984 11.5094 24.6611C11.4974 24.6731 11.4814 24.6931 11.4653 24.7192C11.4072 24.8215 11.4192 24.9258 11.4212 24.9518C11.4332 25.1323 11.2067 25.3007 11.0402 25.6316C10.8497 26.0046 10.8838 26.2833 10.7435 26.3074C10.6973 26.3154 10.6532 26.2993 10.589 26.2412C10.4206 26.0908 10.2702 25.778 10.2121 25.6496C10.194 25.6135 10.17 25.5574 10.1519 25.4852C10.1399 25.4331 10.0958 25.2446 10.176 25.0621C10.2121 24.9839 10.2441 24.9598 10.2822 24.8496C10.2822 24.8496 10.3023 24.7693 10.2943 24.6791C10.2722 24.4485 9.89925 24.0936 9.70474 23.8991C9.25758 23.4519 9.18339 23.2374 9.16935 23.1331C9.16734 23.113 9.16533 23.095 9.16533 23.095C9.15531 22.9225 9.23352 22.8163 9.26359 22.712C9.29367 22.6077 9.27162 22.5255 9.2275 22.3571C9.07511 21.7836 8.41739 21.5149 8.23491 20.815C8.18879 20.6366 8.21286 20.5804 8.14067 20.398C8.0384 20.1413 7.9221 20.0932 7.71957 19.7242C7.60728 19.5177 7.54311 19.4154 7.53308 19.271C7.51303 19.0324 7.61931 18.8459 7.64538 18.8058C7.73561 18.6574 7.87999 18.5531 8.16674 18.3486C8.29307 18.2584 8.35322 18.2223 8.4214 18.1341C8.50963 18.0157 8.54973 17.8854 8.55976 17.7771C8.61591 17.1916 8.36726 16.4657 8.45148 15.7398C8.48155 15.4892 8.55976 15.046 8.71015 14.655C8.75226 14.5427 8.85252 14.268 8.83047 13.909C8.82445 13.8128 8.81041 13.7366 8.80039 13.6845C8.50362 13.6263 8.33518 13.504 8.24294 13.3676C8.19481 13.2934 8.18679 13.2453 8.13465 13.1471C8.05645 12.9967 7.93213 12.8403 7.7296 12.6979C7.70554 12.722 7.68147 12.746 7.65741 12.7681C7.64137 12.7841 7.62532 12.7981 7.61129 12.8122C7.49699 12.9165 7.39673 13.0087 7.31251 13.0869C7.30449 13.0949 7.29848 13.1009 7.29045 13.107C7.25837 13.137 7.22829 13.1651 7.20022 13.1912C7.04381 13.3396 6.9616 13.4178 6.81923 13.5341C6.79917 13.5501 6.70292 13.6243 6.51443 13.7747C6.25976 13.9732 6.20162 14.0193 6.13544 14.1096C6.1174 14.1316 6.07528 14.1918 6.00711 14.276C5.94895 14.3482 5.92088 14.3843 5.8888 14.4144C5.83466 14.4685 5.76046 14.5046 5.6201 14.5748C5.44364 14.661 5.34137 14.6971 5.30728 14.7091C5.24312 14.7292 5.20101 14.7432 5.13885 14.7532C5.0446 14.7693 5.03257 14.7532 4.96439 14.7713C4.9303 14.7793 4.84408 14.8034 4.77389 14.8816C4.72978 14.9317 4.70973 14.9838 4.6997 15.0159C4.6977 15.0219 4.69569 15.038 4.68165 15.046C4.6616 15.058 4.63152 15.04 4.61749 15.028C4.60144 15.0099 4.59944 14.9899 4.59743 14.9818C4.5834 15.0059 4.56736 15.028 4.55733 15.04C4.51923 15.0901 4.50319 15.0981 4.49517 15.1001C4.48715 15.1022 4.46509 15.1102 4.44704 15.0981C4.433 15.0901 4.42298 15.0721 4.42098 14.9879C4.41897 14.9598 4.41897 14.9177 4.42298 14.8675C4.39491 14.8996 4.36884 14.9177 4.34879 14.9277C4.32472 14.9417 4.30267 14.9538 4.27259 14.9558C4.25053 14.9578 4.22847 14.9598 4.21845 14.9457C4.20241 14.9277 4.22647 14.8836 4.29465 14.7653C4.3127 14.7332 4.33475 14.6951 4.36082 14.649C4.32673 14.667 4.29465 14.6871 4.26256 14.7051C4.25254 14.7091 4.17834 14.7412 4.1603 14.7171C4.15227 14.7071 4.1603 14.6891 4.17433 14.653C4.19038 14.6149 4.2024 14.5928 4.21644 14.5648C4.23048 14.5347 4.23449 14.5226 4.25454 14.4785C4.2786 14.4224 4.31069 14.3482 4.33275 14.3061C4.33676 14.2981 4.38689 14.2018 4.46709 14.1156C4.53928 14.0394 4.60947 14.0013 4.74983 13.9211C4.79595 13.895 4.97642 13.7968 5.11478 13.7747C5.1208 13.7727 5.15088 13.7687 5.18898 13.7627C5.26718 13.7526 5.32333 13.7466 5.34138 13.7466C5.52586 13.7286 5.61809 13.7206 5.70833 13.6764C5.77049 13.6464 5.80859 13.6083 5.88278 13.5361C5.98304 13.4358 6.05122 13.3396 6.08932 13.2774C6.10336 13.2553 6.11339 13.2353 6.1194 13.2273C6.12141 13.2233 6.12141 13.2213 6.12141 13.2213C6.12943 13.2072 6.26377 13.0207 6.54651 12.6317C6.61669 12.5315 6.68889 12.4312 6.76308 12.3289C6.83527 12.2287 6.90745 12.1304 6.98165 12.0362C6.80719 11.7314 6.64076 11.6472 6.51643 11.6291C6.36604 11.607 6.17555 11.6672 6.03518 11.5429C6.03518 11.5429 6.00711 11.5188 5.98304 11.4827C5.83065 11.2381 6.36604 10.2515 6.45427 10.0891C6.45227 10.067 6.44826 10.0289 6.43222 9.98482C6.38209 9.84846 6.27982 9.81839 6.05323 9.63391C6.05323 9.63391 5.87075 9.48552 5.8126 9.34916C5.79054 9.29903 5.78453 9.25091 5.78453 9.25091C5.78052 9.21281 5.78052 9.18473 5.78052 9.17872C5.78654 9.08848 5.53187 8.9401 5.42158 8.8639C5.17294 8.68543 5.04259 8.4047 5.00449 8.19616C4.98444 8.08788 4.98845 7.99564 4.99447 7.93949C4.87015 7.88134 4.69369 7.78709 4.50519 7.6367C4.29264 7.46626 4.18035 7.31386 3.98383 7.07724C3.68706 6.7163 3.74121 6.81857 3.38027 6.39146C3.17373 6.14682 2.54208 5.39285 2.41976 5.03392C2.41174 5.00985 2.36963 4.88152 2.29142 4.72511C2.25934 4.66496 2.23328 4.61082 2.18715 4.54264C2.10895 4.42834 2.07687 4.42232 1.97259 4.28396C1.88035 4.15964 1.86231 4.1075 1.85629 4.0674C1.84426 4.00123 1.85629 3.94508 1.86632 3.90698C1.72996 3.76261 1.62569 3.63427 1.54548 3.53401C1.48933 3.46182 1.40713 3.34953 1.3189 3.20315C1.29082 3.15903 1.19858 3.01065 1.10032 2.8021C1.03415 2.66575 1.00608 2.58754 0.990035 2.53942C0.978004 2.49931 0.939903 2.38101 0.931882 2.22861C0.925867 2.1484 0.929881 2.08423 0.973996 2.04814C0.992043 2.03009 1.01009 2.02408 1.02011 2.02207C1.12839 1.98999 1.25072 2.11632 1.26275 2.12835C1.26475 2.09426 1.26676 2.04012 1.25272 1.97796C1.23868 1.91178 1.21663 1.87569 1.11236 1.69722C1.08829 1.6511 1.03816 1.56287 1.00407 1.45459C0.996053 1.43053 0.984018 1.38641 0.994044 1.33628C1.00006 1.30821 1.01009 1.26209 1.04618 1.24003C1.09431 1.20795 1.18254 1.21798 1.22866 1.24805C1.24871 1.26009 1.26074 1.26009 1.26876 1.25607C1.29483 1.24204 1.25673 1.16785 1.28881 1.11571C1.30084 1.09566 1.32491 1.07761 1.38306 1.06157C1.52543 1.02547 1.66379 1.06959 1.68184 1.0736C1.9365 1.15381 2.19718 1.29618 2.28541 1.34832C2.78672 1.58493 3.44042 1.90176 4.19238 2.29679C4.49717 2.45721 4.78793 2.60559 5.15489 2.80812C5.22707 2.85023 5.70632 3.11492 6.15349 3.39164C6.97563 3.89696 7.71957 4.44438 8.25095 4.86147C8.34119 4.88754 8.47353 4.93767 8.6139 5.03191C8.71015 5.09809 8.77031 5.16827 8.88661 5.28457C9.10318 5.50314 9.28164 5.68562 9.41599 5.96635C9.4601 6.05859 9.5343 6.215 9.56438 6.43357C9.58042 6.54586 9.60248 6.69625 9.55836 6.87873C9.52829 7.00706 9.48617 7.06922 9.46612 7.22763C9.45208 7.32589 9.45208 7.41212 9.45609 7.46626C9.53831 7.55449 9.71878 7.72092 9.99349 7.78108C10.1158 7.80915 10.4547 7.88535 10.6833 7.67079C10.8196 7.54446 10.8517 7.37402 10.8598 7.29581C10.8116 7.27977 10.4306 7.15144 10.3224 6.88474C10.3023 6.83662 10.2742 6.76844 10.2863 6.68422C10.3003 6.58997 10.3484 6.55588 10.3986 6.44359C10.4186 6.39547 10.4447 6.32328 10.4487 6.22302C10.4046 6.217 10.3143 6.19895 10.2341 6.13078C10.2181 6.11874 10.1298 6.04455 10.1178 5.95833C10.0958 5.82398 10.2522 5.64551 10.5189 5.5633C10.6271 5.3327 10.7535 5.17027 10.8397 5.06801C11.0142 4.86949 11.3831 4.43837 11.8363 4.48248C11.9807 4.49652 12.091 4.55667 12.1511 4.59277C12.2173 4.58074 12.3196 4.57071 12.4379 4.59277C12.8068 4.66897 12.9853 5.00986 13.0174 5.066C13.0555 5.1402 13.1156 5.27655 13.1277 5.46504C13.1417 5.52119 13.1678 5.59939 13.2339 5.6415C13.27 5.66356 13.2901 5.66356 13.3743 5.68361C13.5468 5.72372 13.651 5.74978 13.7172 5.832C13.7292 5.84603 13.7513 5.87812 13.7613 5.92223C13.7874 6.05458 13.6671 6.16486 13.653 6.18091C13.655 6.28718 13.6851 6.35336 13.7272 6.39547C13.7774 6.44961 13.8275 6.4456 13.8796 6.50174C13.9478 6.57193 13.9538 6.66818 13.9558 6.71229C13.9699 6.88474 13.8576 6.94289 13.6931 7.24969C13.5588 7.50034 13.5568 7.60261 13.4345 7.65876C13.3683 7.68884 13.3583 7.66678 13.2079 7.71089C13.0495 7.76102 13.0174 7.80113 12.9211 7.80714C12.8189 7.81516 12.7326 7.77907 12.6745 7.74498C12.6584 7.96756 12.7166 8.07384 12.7747 8.12999C12.9291 8.28038 13.3121 8.30444 13.4625 8.44481C13.4645 8.44681 13.4685 8.44882 13.4726 8.45483C13.5006 8.48291 13.5748 8.55309 13.659 8.65535C13.7132 8.71952 13.7573 8.77968 13.7914 8.8278H13.9518C14.0902 8.8278 14.2265 8.78569 14.3368 8.70147C14.3388 8.70147 14.3388 8.69947 14.3388 8.69947C14.405 8.64934 14.5073 8.5571 14.5774 8.40671C14.6456 8.25832 14.6436 8.12798 14.6436 7.99564C14.6436 7.91543 14.6356 7.84123 14.5875 7.59058C14.5193 7.23766 14.5093 7.26573 14.4952 7.14943C14.4772 7.00706 14.4351 6.69224 14.5814 6.38143C14.5915 6.35937 14.5995 6.34333 14.6095 6.32729C14.6937 6.18291 14.776 6.09067 14.806 6.06059C15.0988 5.75179 15.3314 5.1803 15.935 4.92163C16.0192 4.88553 16.0954 4.86147 16.1596 4.84543C16.9276 4.20777 17.5311 3.66836 17.9442 3.28937C18.3593 2.90838 18.6059 2.66775 19.0812 2.24666C19.6346 1.75538 20.0998 1.37438 20.4046 1.12975C20.4046 1.12975 21.0162 0.594351 21.1746 0.706644C21.1847 0.712659 21.1927 0.72068 21.1927 0.72068C21.2528 0.776827 21.2789 0.85102 21.2909 0.891124C21.323 1.01344 21.309 1.13777 21.305 1.17186C21.2909 1.28415 21.2608 1.44657 21.1887 1.64108C21.2408 1.58894 21.5636 1.2661 21.6579 1.31423C21.6719 1.32225 21.686 1.33428 21.686 1.33428C21.7361 1.39042 21.7301 1.48066 21.7261 1.51475C21.71 1.65712 21.6098 1.73532 21.6298 1.75738C21.6378 1.7654 21.6519 1.75136 21.7321 1.73933C21.7602 1.73332 21.7882 1.73131 21.8203 1.74134C21.8303 1.74334 21.8384 1.74736 21.8444 1.75137C21.8845 1.77142 21.9005 1.83759 21.8865 1.9198C21.8584 2.05014 21.8323 2.27874 21.9186 2.52939C21.9426 2.60158 21.9727 2.66575 22.0048 2.71989C22.0108 2.7239 22.0148 2.72791 22.0188 2.73192C22.1251 2.8382 22.0228 3.11291 21.9867 3.20716Z" fill="#847847"/>
</svg>
